<?xml version="1.0" encoding="UTF-8"?>
<!-- Generator: Adobe Illustrator 16.0.0, SVG Export Plug-In . SVG Version: 6.00 Build 0)  -->
<!DOCTYPE svg PUBLIC "-//W3C//DTD SVG 1.1//EN" "http://www.w3.org/Graphics/SVG/1.1/DTD/svg11.dtd">
<svg version="1.1" id="Capa_1" xmlns="http://www.w3.org/2000/svg" xmlns:xlink="http://www.w3.org/1999/xlink" x="0px"
  y="0px" viewBox="0 0 612 792" enable-background="new 0 0 612 792" xml:space="preserve">
  <path fill="#FFFFFF"
    d="M516.279,57.75H95.721c-10.38,0-18.794,8.415-18.794,18.794v600.293c0,10.38,8.414,18.795,18.794,18.795  H516.28c10.379,0,18.794-8.415,18.794-18.795V76.544C535.073,66.165,526.658,57.75,516.279,57.75z M136.868,108.941h316.97  c10.72,0,19.407,5.629,19.407,12.572c0,6.943-8.688,12.572-19.407,12.572h-316.97c-10.718,0-19.406-5.628-19.406-12.572  C117.462,114.57,126.15,108.941,136.868,108.941z M136.868,171.015h316.97c10.72,0,19.407,5.629,19.407,12.572  c0,6.944-8.688,12.572-19.407,12.572h-316.97c-10.718,0-19.406-5.627-19.406-12.572C117.462,176.644,126.15,171.015,136.868,171.015  z M136.868,233.088h316.97c10.72,0,19.407,5.629,19.407,12.572c0,6.944-8.688,12.572-19.407,12.572h-316.97  c-10.718,0-19.406-5.628-19.406-12.572C117.462,238.717,126.15,233.088,136.868,233.088z M196.036,381.75h-66.631  c-6.597,0-11.943-5.347-11.943-11.943c0-6.596,5.347-11.943,11.943-11.943h66.631c6.596,0,11.943,5.347,11.943,11.943  C207.979,376.403,202.632,381.75,196.036,381.75z M280.268,319.677H129.405c-6.597,0-11.943-5.347-11.943-11.943  c0-6.595,5.347-11.943,11.943-11.943h150.862c6.597,0,11.943,5.348,11.943,11.943C292.211,314.33,286.864,319.677,280.268,319.677z   M399.311,641.953l-24.82,32.385l-2.787-40.709l-2.788-40.709l27.611,8.323l27.61,8.324L399.311,641.953z M425.075,605.769  l-55.665-16.781L470.628,253.33l55.659,16.786L425.075,605.769z" />
</svg>
