<?xml version="1.0" encoding="utf-8"?>
<!-- Generator: Adobe Illustrator 16.0.0, SVG Export Plug-In . SVG Version: 6.00 Build 0)  -->
<!DOCTYPE svg PUBLIC "-//W3C//DTD SVG 1.1//EN" "http://www.w3.org/Graphics/SVG/1.1/DTD/svg11.dtd">
<svg version="1.1" id="Capa_1" xmlns="http://www.w3.org/2000/svg" xmlns:xlink="http://www.w3.org/1999/xlink" x="0px"
  y="0px" viewBox="0 0 612 792" enable-background="new 0 0 612 792" xml:space="preserve">
  <g>
    <path fill="#FFFFFF" d="M323.996,405.564c-1.696-4.977-2.828-9.5-3.959-13.911h-0.226c-1.131,4.524-2.375,9.161-3.846,13.798
		l-7.465,22.055h22.959L323.996,405.564z" />
    <path fill="#FFFFFF"
      d="M242.603,247.276c-0.282,11.734,2.404,21.342,7.369,26.428c2.482,2.543,5.456,3.833,8.837,3.833
		c14.626,0,16.205-21.479,16.205-30.714c0-9.03-1.579-30.033-16.205-30.033C246.847,216.79,242.603,233.213,242.603,247.276z" />
    <path fill="#FFFFFF"
      d="M338.486,308.252c-0.141,11.721,2.677,21.357,7.73,26.471c2.484,2.514,5.412,3.789,8.703,3.789
		c14.627,0,16.206-21.479,16.206-30.714c0-9.03-1.579-30.033-16.206-30.033C343.567,277.766,338.486,293.078,338.486,308.252z" />
    <path fill="#FFFFFF" d="M516.722,57.75H96.164c-10.38,0-18.794,8.415-18.794,18.794v600.293c0,10.38,8.414,18.795,18.794,18.795
		h420.559c10.379,0,18.794-8.415,18.794-18.795V76.544C535.516,66.165,527.101,57.75,516.722,57.75z M403.053,382.945h11.311
		l-23.186,37.096l23.751,39.132h-11.423l-9.727-16.852c-3.959-6.446-6.447-10.632-8.822-15.042h-0.226
		c-2.149,4.41-4.298,8.482-8.257,15.155l-9.16,16.738h-11.311l23.299-38.566l-22.394-37.661h11.423l10.065,17.869
		c2.828,4.977,4.977,8.821,7.013,12.893h0.339c2.148-4.523,4.071-8.029,6.899-12.893L403.053,382.945z M392.435,306.894
		c0,34.059-19.069,49.304-37.968,49.304c-18.381,0-37.04-14.538-37.29-47.016c0-14.766,3.849-27.234,11.13-36.08
		c6.909-8.395,16.603-13.019,27.292-13.019C378.319,260.083,392.435,278.02,392.435,306.894z M314.27,382.945h11.875l26.013,76.228
		H341.64l-8.144-23.977h-27.03l-7.917,23.977H288.37L314.27,382.945z M271.338,357.104h-19.215l89.813-157.997h19.214
		L271.338,357.104z M322.299,97.945h10.744l24.429,38.566c5.655,8.935,10.066,16.965,13.686,24.769l0.226-0.113
		c-0.904-10.179-1.131-19.453-1.131-31.328V97.945h9.274v76.228h-9.953l-24.203-38.68c-5.315-8.482-10.404-17.191-14.25-25.447
		l-0.339,0.113c0.565,9.613,0.791,18.774,0.791,31.441v32.572h-9.273V97.945z M295.269,97.945h9.839v76.228h-9.839V97.945z
		 M296.551,245.917c0,15.235-3.873,27.924-11.199,36.697c-6.79,8.129-16.377,12.605-26.997,12.605
		c-10.263,0-19.563-4.289-26.187-12.076c-7.152-8.408-10.991-20.568-11.103-35.165c0-14.667,3.85-27.068,11.133-35.885
		c6.918-8.375,16.61-12.986,27.29-12.986C282.349,199.107,296.551,217.043,296.551,245.917z M207.619,97.945h12.554l13.006,36.87
		c3.167,9.387,5.768,17.757,7.69,25.673h0.339c1.923-7.69,4.637-16.06,8.03-25.673l13.572-36.87h12.554l4.75,76.228h-9.613
		l-1.923-33.477c-0.565-10.631-1.244-23.411-1.131-32.912h-0.339c-2.601,8.935-5.768,18.435-9.613,28.953l-13.458,36.983h-7.464
		l-12.328-36.305c-3.619-10.744-6.673-20.584-8.822-29.632h-0.226c-0.227,9.5-0.792,22.28-1.471,33.703l-2.036,32.686h-9.387
		L207.619,97.945z M207.619,382.945h12.554l13.006,36.869c3.167,9.387,5.768,17.757,7.69,25.674h0.339
		c1.923-7.691,4.637-16.061,8.03-25.674l13.572-36.869h12.554l4.75,76.228h-9.613l-1.923-33.478
		c-0.565-10.631-1.244-23.41-1.131-32.911h-0.339c-2.601,8.935-5.768,18.435-9.613,28.953l-13.458,36.983h-7.464l-12.328-36.305
		c-3.619-10.744-6.673-20.584-8.822-29.632h-0.226c-0.227,9.501-0.792,22.28-1.471,33.703l-2.036,32.686h-9.387L207.619,382.945z
		 M480.435,638.578H132.452v-23.999h347.983V638.578z M480.435,593.58H132.452v-23.998h347.983V593.58z M480.435,548.583H132.452
		v-23.999h347.983V548.583z" />
  </g>
</svg>
