<?xml version="1.0" encoding="utf-8"?>
<!-- Generator: Adobe Illustrator 16.0.0, SVG Export Plug-In . SVG Version: 6.00 Build 0)  -->
<!DOCTYPE svg PUBLIC "-//W3C//DTD SVG 1.1//EN" "http://www.w3.org/Graphics/SVG/1.1/DTD/svg11.dtd">
<svg version="1.1" id="Capa_1" xmlns="http://www.w3.org/2000/svg" xmlns:xlink="http://www.w3.org/1999/xlink" x="0px"
  y="0px" viewBox="0 0 612 792" enable-background="new 0 0 612 792" xml:space="preserve">
  <g>
    <path fill="#FFFFFF" d="M532.923,75.017H79.075c-5.813,0-10.523,4.712-10.523,10.524v620.918c0,5.813,4.712,10.524,10.523,10.524
		h453.848c5.813,0,10.525-4.713,10.525-10.524V85.541C543.448,79.729,538.735,75.017,532.923,75.017z M214.179,342.851h188.729
		c6.516,0,11.795,2.749,11.795,6.14c0,3.39-5.279,6.139-11.795,6.139H214.179c-6.516,0-11.795-2.749-11.795-6.139
		C202.384,345.6,207.662,342.851,214.179,342.851z M333.653,259.571l-26.764,46.104l-26.769-46.104h13.854v-46.387h25.823v46.387
		H333.653z M214.179,419.161h188.729c6.516,0,11.795,2.749,11.795,6.14c0,3.392-5.279,6.141-11.795,6.141H214.179
		c-6.516,0-11.795-2.749-11.795-6.141C202.384,421.91,207.663,419.161,214.179,419.161z M333.653,498.993l-26.764,46.104
		l-26.769-46.104h13.854v-46.385h25.823v46.385H333.653L333.653,498.993z M91.7,115.707c0-5.813,4.712-10.525,10.525-10.525h71.918
		c5.813,0,10.523,4.712,10.523,10.525v71.917c0,5.812-4.712,10.523-10.523,10.523h-71.918c-5.813,0-10.525-4.712-10.525-10.523
		V115.707z M91.7,353.375c0-5.813,4.712-10.524,10.525-10.524h71.918c5.813,0,10.523,4.712,10.523,10.524v71.917
		c0,5.813-4.712,10.523-10.523,10.523h-71.918c-5.813,0-10.525-4.711-10.525-10.523V353.375z M150.465,666.044
		c0,3.674-2.979,6.651-6.652,6.651h-45.46c-3.673,0-6.652-2.979-6.652-6.651v-45.46c0-3.674,2.979-6.651,6.652-6.651h45.459
		c3.673,0,6.652,2.979,6.652,6.651L150.465,666.044L150.465,666.044z M150.465,585.929c0,3.676-2.979,6.651-6.652,6.651h-45.46
		c-3.673,0-6.652-2.978-6.652-6.651v-45.46c0-3.673,2.979-6.649,6.652-6.649h45.459c3.673,0,6.652,2.979,6.652,6.649
		L150.465,585.929L150.465,585.929z M169.315,568.902c0-4.36,4.911-7.896,10.969-7.896h313.99c6.057,0,10.969,3.533,10.969,7.896
		v15.785c0,4.357-4.912,7.893-10.969,7.893h-313.99c-6.058,0-10.969-3.533-10.969-7.893V568.902z M453.54,397.885h45.459
		c3.674,0,6.652,2.979,6.652,6.653v45.459c0,3.673-2.979,6.652-6.652,6.652H453.54c-3.674,0-6.65-2.979-6.65-6.652v-45.459
		C446.888,400.864,449.866,397.885,453.54,397.885z M446.888,371.062v-45.459c0-3.674,2.979-6.652,6.652-6.652h45.459
		c3.674,0,6.652,2.979,6.652,6.652v45.459c0,3.675-2.979,6.652-6.652,6.652H453.54C449.866,377.715,446.888,374.736,446.888,371.062
		z M507.071,664.803c0,4.359-4.911,7.896-10.97,7.896H182.113c-6.059,0-10.97-3.534-10.97-7.896V649.02
		c0-4.359,4.911-7.896,10.97-7.896h313.988c6.059,0,10.97,3.534,10.97,7.896V664.803L507.071,664.803z M509.702,183.895
		c0,5.451-4.285,9.869-9.568,9.869H226.242c-5.285,0-9.568-4.418-9.568-9.869v-19.736c0-5.451,4.283-9.869,9.568-9.869h273.892
		c5.283,0,9.568,4.418,9.568,9.869V183.895L509.702,183.895z" />
    <path fill="#FFFFFF" d="M158.883,164.033c0,5.813-4.712,10.524-10.524,10.524h-21.047c-5.813,0-10.524-4.712-10.524-10.524v-21.047
		c0-5.813,4.712-10.525,10.524-10.525h21.047c5.813,0,10.524,4.712,10.524,10.525V164.033z" />
    <path fill="#FFFFFF" d="M158.883,401.713c0,5.813-4.712,10.524-10.524,10.524h-21.047c-5.813,0-10.524-4.711-10.524-10.524v-21.047
		c0-5.813,4.712-10.525,10.524-10.525h21.047c5.813,0,10.524,4.712,10.524,10.525V401.713z" />
    <path fill="#FFFFFF" d="M489.513,356.107c0,3.634-2.943,6.578-6.576,6.578h-13.154c-3.633,0-6.578-2.944-6.578-6.578v-13.153
		c0-3.633,2.945-6.578,6.578-6.578h13.154c3.633,0,6.576,2.945,6.576,6.578V356.107z" />
    <path fill="#FFFFFF" d="M489.513,435.043c0,3.634-2.943,6.578-6.576,6.578h-13.154c-3.633,0-6.578-2.944-6.578-6.578v-13.154
		c0-3.633,2.945-6.578,6.578-6.578h13.154c3.633,0,6.576,2.945,6.576,6.578V435.043z" />
    <path fill="#FFFFFF" d="M134.325,571.398c0,3.634-2.944,6.578-6.578,6.578h-13.154c-3.633,0-6.578-2.944-6.578-6.578v-13.154
		c0-3.633,2.945-6.578,6.578-6.578h13.154c3.633,0,6.578,2.945,6.578,6.578V571.398z" />
    <path fill="#FFFFFF" d="M134.325,650.333c0,3.633-2.944,6.578-6.578,6.578h-13.154c-3.633,0-6.578-2.945-6.578-6.578v-13.155
		c0-3.632,2.945-6.577,6.578-6.577h13.154c3.633,0,6.578,2.945,6.578,6.577V650.333z" />
  </g>
</svg>
